<?xml version="1.0" encoding="UTF-8" standalone="no"?>
<!-- Created with Inkscape (http://www.inkscape.org/) and cleaned up manually 2021-05-16 -->

<svg
   xmlns:dc="http://purl.org/dc/elements/1.1/"
   xmlns:cc="http://creativecommons.org/ns#"
   xmlns:rdf="http://www.w3.org/1999/02/22-rdf-syntax-ns#"
   xmlns:svg="http://www.w3.org/2000/svg"
   xmlns="http://www.w3.org/2000/svg"
   xmlns:xlink="http://www.w3.org/1999/xlink"
   xmlns:inkscape="http://www.inkscape.org/namespaces/inkscape"
   width="540"
   height="360"
   viewBox="0 0 142.875 95.250003"
   version="1.1"
   inkscape:version="0.92.2 5c3e80d, 2017-08-06">
  <defs
     id="defs2">
    <marker
       inkscape:stockid="Arrow2Lstart"
       orient="auto"
       refY="0"
       refX="0"
       id="marker10611"
       style="overflow:visible"
       inkscape:isstock="true">
      <path
         id="path10609"
         style="fill:#000000;fill-rule:evenodd;stroke:#000000;stroke-width:0.625;stroke-linejoin:round"
         d="M 8.7185878,4.0337352 -2.2072895,0.01601326 8.7185884,-4.0017078 c -1.7454984,2.3720609 -1.7354408,5.6174519 -6e-7,8.035443 z"
         transform="matrix(1.1,0,0,1.1,1.1,0)" />
    </marker>
    <marker
       inkscape:stockid="Arrow2Lstart"
       orient="auto"
       refY="0"
       refX="0"
       id="Arrow2Lstart"
       style="overflow:visible"
       inkscape:isstock="true">
      <path
         id="path2359"
         style="fill:#000000;fill-rule:evenodd;stroke:#000000;stroke-width:0.625;stroke-linejoin:round"
         d="M 8.7185878,4.0337352 -2.2072895,0.01601326 8.7185884,-4.0017078 c -1.7454984,2.3720609 -1.7354408,5.6174519 -6e-7,8.035443 z"
         transform="matrix(1.1,0,0,1.1,1.1,0)" />
    </marker>
    <marker
       inkscape:isstock="true"
       style="overflow:visible"
       id="marker10416"
       refX="0"
       refY="0"
       orient="auto"
       inkscape:stockid="Arrow1Lstart">
      <path
         transform="matrix(0.8,0,0,0.8,10,0)"
         style="fill:#000000;fill-rule:evenodd;stroke:#000000;stroke-width:1.00000003pt"
         d="M 0,0 5,-5 -12.5,0 5,5 Z"
         id="path10414" />
    </marker>
    <marker
       inkscape:stockid="Arrow2Lend"
       orient="auto"
       refY="0"
       refX="0"
       id="marker10316"
       style="overflow:visible"
       inkscape:isstock="true">
      <path
         id="path10314"
         style="fill:#000000;fill-rule:evenodd;stroke:#000000;stroke-width:0.625;stroke-linejoin:round"
         d="M 8.7185878,4.0337352 -2.2072895,0.01601326 8.7185884,-4.0017078 c -1.7454984,2.3720609 -1.7354408,5.6174519 -6e-7,8.035443 z"
         transform="matrix(-1.1,0,0,-1.1,-1.1,0)" />
    </marker>
    <marker
       inkscape:isstock="true"
       style="overflow:visible"
       id="marker9463"
       refX="0"
       refY="0"
       orient="auto"
       inkscape:stockid="Arrow2Lend"
       inkscape:collect="always">
      <path
         transform="matrix(-1.1,0,0,-1.1,-1.1,0)"
         d="M 8.7185878,4.0337352 -2.2072895,0.01601326 8.7185884,-4.0017078 c -1.7454984,2.3720609 -1.7354408,5.6174519 -6e-7,8.035443 z"
         style="fill:#000000;fill-rule:evenodd;stroke:#000000;stroke-width:0.625;stroke-linejoin:round"
         id="path9461" />
    </marker>
    <marker
       inkscape:stockid="Arrow2Lend"
       orient="auto"
       refY="0"
       refX="0"
       id="Arrow2Lend"
       style="overflow:visible"
       inkscape:isstock="true"
       inkscape:collect="always">
      <path
         id="path2362"
         style="fill:#000000;fill-rule:evenodd;stroke:#000000;stroke-width:0.625;stroke-linejoin:round"
         d="M 8.7185878,4.0337352 -2.2072895,0.01601326 8.7185884,-4.0017078 c -1.7454984,2.3720609 -1.7354408,5.6174519 -6e-7,8.035443 z"
         transform="matrix(-1.1,0,0,-1.1,-1.1,0)" />
    </marker>
    <marker
       inkscape:isstock="true"
       style="overflow:visible"
       id="marker6556"
       refX="0"
       refY="0"
       orient="auto"
       inkscape:stockid="Arrow1Lend">
      <path
         transform="matrix(-0.8,0,0,-0.8,-10,0)"
         style="fill:#000000;fill-rule:evenodd;stroke:#000000;stroke-width:1.00000003pt"
         d="M 0,0 5,-5 -12.5,0 5,5 Z"
         id="path6554" />
    </marker>
    <marker
       inkscape:isstock="true"
       style="overflow:visible"
       id="marker6504"
       refX="0"
       refY="0"
       orient="auto"
       inkscape:stockid="Arrow1Lstart">
      <path
         transform="matrix(0.8,0,0,0.8,10,0)"
         style="fill:#000000;fill-rule:evenodd;stroke:#000000;stroke-width:1.00000003pt"
         d="M 0,0 5,-5 -12.5,0 5,5 Z"
         id="path6502" />
    </marker>
    <marker
       inkscape:stockid="Arrow1Lend"
       orient="auto"
       refY="0"
       refX="0"
       id="marker5457"
       style="overflow:visible"
       inkscape:isstock="true">
      <path
         id="path5455"
         d="M 0,0 5,-5 -12.5,0 5,5 Z"
         style="fill:#000000;fill-rule:evenodd;stroke:#000000;stroke-width:1.00000003pt"
         transform="matrix(-0.8,0,0,-0.8,-10,0)" />
    </marker>
    <marker
       inkscape:stockid="Arrow1Lend"
       orient="auto"
       refY="0"
       refX="0"
       id="marker3923"
       style="overflow:visible"
       inkscape:isstock="true">
      <path
         id="path3921"
         d="M 0,0 5,-5 -12.5,0 5,5 Z"
         style="fill:#000000;fill-rule:evenodd;stroke:#000000;stroke-width:1.00000003pt"
         transform="matrix(-0.8,0,0,-0.8,-10,0)" />
    </marker>
    <marker
       inkscape:isstock="true"
       style="overflow:visible"
       id="marker3548"
       refX="0"
       refY="0"
       orient="auto"
       inkscape:stockid="Arrow1Lstart">
      <path
         transform="matrix(0.8,0,0,0.8,10,0)"
         style="fill:#000000;fill-rule:evenodd;stroke:#000000;stroke-width:1.00000003pt"
         d="M 0,0 5,-5 -12.5,0 5,5 Z"
         id="path3546" />
    </marker>

    <inkscape:perspective
       inkscape:vp_x="35.338415 : 169.23391 : 1"
       inkscape:vp_y="317.16422 : 948.37065 : 0"
       inkscape:vp_z="1118.976 : 291.1468 : 1"
       inkscape:persp3d-origin="566.86017 : 256.11626 : 1"
       id="perspective170" />

    <style
       type="text/css"
       id="style6">
   
    .str3 {stroke:#000000;stroke-width:21;stroke-linecap:round}
    .str1 {stroke:#000000;stroke-width:42}
    .str2 {stroke:#000000;stroke-width:42;stroke-linecap:round}
    .str0 {stroke:#000000;stroke-width:56}
    .fil4 {fill:none}
    .fil5 {fill:#1F1A17}
    .fil3 {fill:#000000}
    .fil0 {fill:#BA2B1A}
    .fil1 {fill:#E9CC0C}
    .fil2 {fill:#FFFFFF}
   
  </style>
    <pattern
       patternUnits="userSpaceOnUse"
       width="256"
       height="256"
       id="sand_bitmap"
       inkscape:stockid="Sand (bitmap)">
      <!-- Seamless texture provided by FreeSeamlessTextures.com -->
      <!-- License: creative commons attribution -->
    </pattern>
    <pattern
       patternUnits="userSpaceOnUse"
       width="256"
       height="256"
       id="sand_bitmap-7"
       inkscape:stockid="Sand (bitmap)">
      <!-- Seamless texture provided by FreeSeamlessTextures.com -->
      <!-- License: creative commons attribution -->
    </pattern>
  </defs>

  <g
     transform="translate(0,-116.41667)">
    <rect
       style="fill:#f0fff0;stroke:#f5f5f5;stroke-width:0.25660196;stroke-linecap:round;stroke-linejoin:miter"
       width="142.61839"
       height="94.993401"
       x="0.12830098"
       y="116.54498"
       ry="0.5182783" />
  </g>

  <g
     transform="translate(0,-201.74998)">
      <path
         d="m 128.54271,242.74787 h 7.94738 c 0.48027,0 0.86691,0.61559 0.86691,1.38025 v 15.02509 c 0,0.76466 -0.38664,1.38025 -0.86691,1.38025 h -7.94738 c -0.48027,0 -0.86691,-0.61559 -0.86691,-1.38025 v -15.02509 c 0,-0.76466 0.38664,-1.38025 0.86691,-1.38025 z"
         style="fill:#87cefa;stroke:#000000;stroke-width:0.33904436;stroke-linecap:round;stroke-linejoin:miter" />
      <path
         d="m 136.6074,251.64065 a 4.0910181,7.5157227 0 0 1 -4.08861,7.51572 4.0910181,7.5157227 0 0 1 -4.09343,-7.50687 4.0910181,7.5157227 0 0 1 4.08379,-7.52456 4.0910181,7.5157227 0 0 1 4.09823,7.49801"
         style="fill:#ffffff;stroke:#000000;stroke-width:0.90536171;stroke-linecap:round;stroke-linejoin:round" />
      <path
         d="m 135.3722,251.64065 a 2.8558212,5.2465086 0 0 1 -2.85414,5.24651 2.8558212,5.2465086 0 0 1 -2.8575,-5.24033 2.8558212,5.2465086 0 0 1 2.85077,-5.25268 2.8558212,5.2465086 0 0 1 2.86086,5.23413"
         style="fill:#ffffff;stroke:#000000;stroke-width:0.92938143;stroke-linecap:round;stroke-linejoin:round" />
      <path
         d="m 134.19693,251.64065 a 1.6805533,3.0873918 0 0 1 -1.67956,3.08739 1.6805533,3.0873918 0 0 1 -1.68154,-3.08375 1.6805533,3.0873918 0 0 1 1.67758,-3.09103 1.6805533,3.0873918 0 0 1 1.68351,3.08012"
         style="fill:#ffffff;stroke:#000000;stroke-width:0.85800546;stroke-linecap:round;stroke-linejoin:round" />
      <path
         d="m 133.19984,251.64065 a 0.6834412,1.2555689 0 0 1 -0.68303,1.25556 0.6834412,1.2555689 0 0 1 -0.68385,-1.25409 0.6834412,1.2555689 0 0 1 0.68224,-1.25704 0.6834412,1.2555689 0 0 1 0.68464,1.25261"
         style="fill:#ff0000;stroke:#ff0000;stroke-width:0.34893048;stroke-linecap:round;stroke-linejoin:round" />

    <g
       transform="translate(3.5190465,188.62654)"
       style="opacity:0.348">
      <rect
         style="fill:#a9a9a9;stroke:#000000;stroke-width:0.26458332;stroke-linecap:round;stroke-linejoin:round"
         width="6.1643991"
         height="5.6343493"
         x="38.637657"
         y="45.756466"
         ry="0.03893014" />
      <path
         d="m 44.802058,45.756467 h -6.184472 l 1.769906,-1.209097 6.201816,0.0065"
         style="fill:#a9a9a9;stroke:#000000;stroke-width:0.26458332;stroke-linecap:round;stroke-linejoin:round" />
      <path
         d="m 44.822132,45.756466 v 5.634347 l 1.769,-1.220971 0.0092,-5.615998 z"
         style="fill:#a9a9a9;stroke:#000000;stroke-width:0.26458332;stroke-linecap:round;stroke-linejoin:round;stroke-miterlimit:4" />
      <g
         transform="translate(-3.442308,-0.04630907)">
        <path
           style="fill:#696969;stroke:#000000;stroke-width:0.13229167;stroke-linecap:round;stroke-linejoin:round;stroke-miterlimit:4"
           d="m 49.407427,49.436683 3.515653,1.250618 -0.0191,-5.547256 -3.650213,1.4049"/>
        <path
           d="m 53.683634,47.930046 a 0.75382441,2.7586005 0 0 1 -0.75338,2.7586 0.75382441,2.7586005 0 0 1 -0.754268,-2.75535 0.75382441,2.7586005 0 0 1 0.752491,-2.761846 0.75382441,2.7586005 0 0 1 0.755155,2.752096"
           style="fill:#000000;stroke:#000000;stroke-width:0.18205336;stroke-linecap:round;stroke-linejoin:round" />
        <path
           d="m 49.432914,49.444493 c -0.443458,-0.160526 -0.778367,-0.666524 -0.778858,-1.46989 -4.9e-4,-0.803369 0.227202,-1.310902 0.676117,-1.456946"
           style="fill:#696969;stroke:#000000;stroke-width:0.1322298;stroke-linecap:round;stroke-linejoin:round" />
      </g>
    </g>

    <g
       transform="translate(-3.9058722,197.28437)">
        <rect
           ry="0"
           y="31.579706"
           x="32.877457"
           height="5.6343493"
           width="19.318947"
           style="fill:#d3d3d3;stroke:#000000;stroke-width:0.26458332;stroke-linecap:round;stroke-linejoin:round" />
        <path
           style="fill:#d3d3d3;stroke:#000000;stroke-width:0.26458332;stroke-linecap:round;stroke-linejoin:round"
           d="M 52.196403,31.579707 H 32.877457 l 1.778176,-1.202621 H 53.97458"/>
        <path
           style="fill:#a9a9a9;stroke:#000000;stroke-width:0.26458332;stroke-linecap:round;stroke-linejoin:round;stroke-miterlimit:4"
           d="m 52.196404,31.579707 v 5.634347 l 1.778176,-1.202619 v -5.634349 z"/>

      <g
         transform="translate(-3.5939469,0.06174543)">
        <path
           style="fill:#deb887;stroke:#000000;stroke-width:0.12365311;stroke-linecap:round;stroke-linejoin:round;stroke-miterlimit:4"
           d="m 56.792005,35.102758 3.475738,-0.01083 0.0099,-2.898996 -3.486481,-0.0092"/>
        <path
           d="m 61.068213,33.646675 a 0.75382441,1.4552404 0 0 1 -0.753381,1.45524 0.75382441,1.4552404 0 0 1 -0.754268,-1.453525 0.75382441,1.4552404 0 0 1 0.752492,-1.456953 0.75382441,1.4552404 0 0 1 0.755155,1.451809"
           style="fill:#ffff00;stroke:#000000;stroke-width:0.13222747;stroke-linecap:round;stroke-linejoin:round" />
        <path
           d="m 56.792937,35.094195 c -0.416169,4.73e-4 -0.753807,-0.650151 -0.754298,-1.453517 -4.9e-4,-0.803369 0.336354,-1.455528 0.752523,-1.456946"
           style="fill:#deb887;stroke:#000000;stroke-width:0.1322298;stroke-linecap:round;stroke-linejoin:round" />
      </g>
    </g>

    <g
       transform="translate(3.5190465,224.34522)">
      <rect
         ry="0.03893014"
         y="45.756466"
         x="38.637657"
         height="5.6343493"
         width="6.1643991"
         style="fill:#a9a9a9;stroke:#000000;stroke-width:0.26458332;stroke-linecap:round;stroke-linejoin:round" />
      <path
         style="fill:#a9a9a9;stroke:#000000;stroke-width:0.26458332;stroke-linecap:round;stroke-linejoin:round"
         d="m 44.802058,45.756467 h -6.184472 l 1.769906,-1.209097 6.201816,0.0065"/>
      <path
         style="fill:#a9a9a9;stroke:#000000;stroke-width:0.26458332;stroke-linecap:round;stroke-linejoin:round;stroke-miterlimit:4"
         d="m 44.822132,45.756466 v 5.634347 l 1.769,-1.220971 0.0092,-5.615998 z"/>
      <g
         transform="translate(-3.442308,-0.04630907)">
        <path
           d="m 49.407427,49.436683 3.515653,1.250618 -0.0191,-5.547256 -3.650213,1.4049"
           style="fill:#696969;stroke:#000000;stroke-width:0.13229167;stroke-linecap:round;stroke-linejoin:round;stroke-miterlimit:4" />
        <path
           style="fill:#000000;stroke:#000000;stroke-width:0.18205336;stroke-linecap:round;stroke-linejoin:round"
           d="m 53.683634,47.930046 a 0.75382441,2.7586005 0 0 1 -0.75338,2.7586 0.75382441,2.7586005 0 0 1 -0.754268,-2.75535 0.75382441,2.7586005 0 0 1 0.752491,-2.761846 0.75382441,2.7586005 0 0 1 0.755155,2.752096" />
        <path
           style="fill:#696969;stroke:#000000;stroke-width:0.1322298;stroke-linecap:round;stroke-linejoin:round"
           d="m 49.432914,49.444493 c -0.443458,-0.160526 -0.778367,-0.666524 -0.778858,-1.46989 -4.9e-4,-0.803369 0.227202,-1.310902 0.676117,-1.456946"/>
      </g>
    </g>

    <g
       transform="translate(-3.9058722,233.00294)"
       style="opacity:0.34800002">

        <rect
           style="fill:#d3d3d3;stroke:#000000;stroke-width:0.26458332;stroke-linecap:round;stroke-linejoin:round"
           id="rect3879"
           width="19.318947"
           height="5.6343493"
           x="32.877457"
           y="31.579706"
           ry="0" />
        <path
           d="M 52.196403,31.579707 H 32.877457 l 1.778176,-1.202621 H 53.97458"
           style="fill:#d3d3d3;stroke:#000000;stroke-width:0.26458332;stroke-linecap:round;stroke-linejoin:round" />
        <path
           d="m 52.196404,31.579707 v 5.634347 l 1.778176,-1.202619 v -5.634349 z"
           style="fill:#a9a9a9;stroke:#000000;stroke-width:0.26458332;stroke-linecap:round;stroke-linejoin:round;stroke-miterlimit:4" />

      <g
         transform="translate(-3.5939469,0.06174543)">
        <path
           d="m 56.792005,35.102758 3.475738,-0.01083 0.0099,-2.898996 -3.486481,-0.0092"
           style="fill:#deb887;stroke:#000000;stroke-width:0.12365311;stroke-linecap:round;stroke-linejoin:round;stroke-miterlimit:4" />
        <path
           style="fill:#ffff00;stroke:#000000;stroke-width:0.13222747;stroke-linecap:round;stroke-linejoin:round"
           d="m 61.068213,33.646675 a 0.75382441,1.4552404 0 0 1 -0.753381,1.45524 0.75382441,1.4552404 0 0 1 -0.754268,-1.453525 0.75382441,1.4552404 0 0 1 0.752492,-1.456953 0.75382441,1.4552404 0 0 1 0.755155,1.451809" />
        <path
           style="fill:#deb887;stroke:#000000;stroke-width:0.1322298;stroke-linecap:round;stroke-linejoin:round"
           d="m 56.792937,35.094195 c -0.416169,4.73e-4 -0.753807,-0.650151 -0.754298,-1.453517 -4.9e-4,-0.803369 0.336354,-1.455528 0.752523,-1.456946"/>
      </g>
    </g>
    <path
       d="m 38.933926,237.55729 0.07595,21.58048"
       style="fill:none;stroke:#000000;stroke-width:0.5291667;stroke-linecap:butt;stroke-linejoin:miter;stroke-miterlimit:4;marker-end:url(#marker5457)" />

      <path
         style="fill:#ffff00"
         d="m 132.18906,253.45341 c -26.08157,-6.73629 -52.378717,-13.64267 -78.537026,-20.47454 0.0051,-1.81023 -0.0066,-2.7719 -0.02537,-3.934 l 78.415426,20.48009"/>
      <path
         d="M 132.07785,253.44184 C 106.02529,246.71312 79.757407,239.81439 53.628199,232.99012 m -0.02537,-3.934 78.328191,20.4573"
         style="fill:#ffff00;stroke:#000000;stroke-width:0.40555337;stroke-linecap:round;stroke-linejoin:round" />

    <g
       transform="matrix(1,-0.26123418,0,-1,11.259896,317.58866)">
      <path
         d="m 120.92916,36.315905 c -26.081567,0.0771 -52.378713,0.04044 -78.537022,0.04201 -0.05667,-1.22429 -0.02207,-2.148691 -0.02537,-3.927372 l 78.415422,-0.0047"
         style="fill:#ffff00" />
      <path
         style="fill:#ffff00;stroke:#000000;stroke-width:0.40555337;stroke-linecap:round;stroke-linejoin:round"
         d="m 120.81795,36.333378 c -26.052554,0.0771 -52.320439,0.04044 -78.449647,0.04201 m -0.02537,-3.927373 78.328187,-0.0047"/>
    </g>

    <path
       d="m 62.58604,228.96421 19.402674,5.05141"
       style="fill:none;stroke:#000000;stroke-width:0.26458332;stroke-linecap:butt;stroke-linejoin:miter;stroke-miterlimit:4;marker-end:url(#Arrow2Lend)" />
    <path
       style="fill:none;stroke:#000000;stroke-width:0.26458332;stroke-linecap:butt;stroke-linejoin:miter;stroke-miterlimit:4;marker-end:url(#marker9463)"
       d="m 82.386352,269.02873 -19.40267,5.05141"/>

      <path
         d="m 22.778386,271.51164 -0.06846,-40.40566"
         style="fill:none;stroke:#000000;stroke-width:0.5291667;stroke-linecap:butt;stroke-linejoin:miter;stroke-miterlimit:4;marker-start:url(#Arrow2Lstart)" />
      <path
         style="fill:none;stroke:#000000;stroke-width:0.52916676;stroke-linecap:round;stroke-linejoin:miter;stroke-miterlimit:4"
         d="m 20.543327,272.51242 c 1.43719,-0.0437 1.68059,0.0201 4.48322,-0.0184"/>
      <path
         d="m 20.448557,231.00347 c 1.43719,-0.0437 1.68059,0.0201 4.48322,-0.0184"
         style="fill:none;stroke:#000000;stroke-width:0.52916676;stroke-linecap:round;stroke-linejoin:miter;stroke-miterlimit:4" />
      <path
         d="m 26.11032,272.5052 c 7.196782,-0.009 8.415617,0.005 22.44989,-0.004"
         style="fill:none;stroke:#556b2f;stroke-width:0.26485208;stroke-linecap:round;stroke-linejoin:miter;stroke-miterlimit:4;stroke-dasharray:0.26485207, 1.05940832;stroke-dashoffset:0" />
      <path
         style="fill:none;stroke:#556b2f;stroke-width:0.26485208;stroke-linecap:round;stroke-linejoin:miter;stroke-miterlimit:4;stroke-dasharray:0.26485209, 1.05940837;stroke-dashoffset:0"
         d="m 26.11032,230.96609 c 7.196782,-0.009 8.415617,0.005 22.44989,-0.004"/>

      <path
         style="fill:none;stroke:#000000;stroke-width:0.5291667;stroke-linecap:butt;stroke-linejoin:miter;stroke-miterlimit:4;marker-start:url(#marker10611);marker-end:url(#marker10316)"
         d="m 53.805304,222.40216 77.095496,-0.0579"/>
      <path
         d="m 52.516498,220.1684 c 0.04366,1.43719 -0.02007,1.68059 0.01837,4.48322"
         style="fill:none;stroke:#000000;stroke-width:0.5291667;stroke-linecap:round;stroke-linejoin:miter;stroke-miterlimit:4" />
      <path
         style="fill:none;stroke:#000000;stroke-width:0.52916676;stroke-linecap:round;stroke-linejoin:miter;stroke-miterlimit:4"
         d="m 132.125,220.07363 c 0.0437,1.43719 -0.0201,1.68059 0.0184,4.48322"/>
      <path
         d="m 132.16518,252.13677 c -0.008,-8.65734 0.004,-10.12353 -0.003,-27.00598"
         style="fill:none;stroke:#556b2f;stroke-width:0.26459944;stroke-linecap:round;stroke-linejoin:miter;stroke-miterlimit:4;stroke-dasharray:0.26459945, 1.05839782;stroke-dashoffset:0" />

    <path
       style="fill:none;stroke:#000000;stroke-width:0.26458332;stroke-linecap:round;stroke-linejoin:miter;stroke-miterlimit:4"
       d="m 86.098147,239.53718 c 0.659619,0.1676 2.118221,0.54506 3.029019,0.78592 0.124646,0.0328 0.437389,0.10699 0.608035,0.1461 0.17067,0.039 0.352979,0.13988 0.653256,0.21749 0.300272,0.0776 0.473703,-0.017 0.789173,0.064 0.315453,0.0811 0.388662,0.44063 0.586812,0.50182 0.27736,0.0857 0.684242,-0.5761 0.912141,-0.51908 0.28222,0.0709 0.11064,1.41331 0.380291,1.47862 0.26957,0.0656 0.964608,-1.88812 1.221133,-1.81882 0.239654,0.0651 -0.196206,2.72754 0.04623,2.7915 0.266519,0.07 1.153915,-2.73955 1.456098,-2.66114 0.246499,0.064 -0.239651,2.72739 0.0253,2.79944 0.30451,0.0829 0.899459,-1.93817 1.240416,-1.84576 0.222058,0.0606 0.06331,1.42951 0.364111,1.51163 0.237568,0.0646 0.610344,-0.63164 0.90872,-0.55276 0.226971,0.0598 0.33159,0.4495 0.625159,0.52843 0.245998,0.0657 0.390102,-0.032 0.715896,0.0456 0.254063,0.0606 0.253306,0.10347 0.728463,0.22508 1.46898,0.37602 1.55953,0.39945 3.10766,0.80111"/>
    <path
       d="m 86.098147,263.61546 c 0.659619,-0.1676 2.118221,-0.54506 3.029019,-0.78592 0.124646,-0.0328 0.437389,-0.10699 0.608035,-0.1461 0.17067,-0.039 0.352979,-0.13988 0.653256,-0.21749 0.300272,-0.0776 0.473703,0.017 0.789173,-0.064 0.315453,-0.0811 0.388662,-0.44063 0.586812,-0.50182 0.27736,-0.0857 0.684242,0.5761 0.912141,0.51908 0.28222,-0.0709 0.11064,-1.41331 0.380291,-1.47862 0.26957,-0.0656 0.964608,1.88812 1.221133,1.81882 0.239654,-0.0651 -0.196206,-2.72754 0.04623,-2.7915 0.266519,-0.07 1.153915,2.73955 1.456098,2.66114 0.246499,-0.064 -0.239651,-2.72739 0.0253,-2.79944 0.30451,-0.0829 0.899459,1.93817 1.240416,1.84576 0.222058,-0.0606 0.06331,-1.42951 0.364111,-1.51163 0.237568,-0.0646 0.610344,0.63164 0.90872,0.55276 0.226971,-0.0598 0.33159,-0.4495 0.625159,-0.52843 0.245998,-0.0657 0.390102,0.032 0.715896,-0.0456 0.254063,-0.0606 0.253306,-0.10347 0.728463,-0.22508 1.46898,-0.37602 1.55953,-0.39945 3.10766,-0.80111"
       style="fill:none;stroke:#000000;stroke-width:0.26458332;stroke-linecap:round;stroke-linejoin:miter;stroke-miterlimit:4" />
  </g>

  <g>
    <g
       transform="translate(0,-201.74998)">
      <path
         d="m 72.957839,214.93575 q 0.01929,-0.23151 0.327973,-1.98231 l -0.742763,-0.11575 0.03859,-0.21704 h 1.562695 l -1.157552,6.51605 0.545014,0.12058 -0.03858,0.21704 h -1.374593 l 0.139871,-0.75241 q -0.81511,0.8537 -1.490349,0.8537 -0.593245,0 -0.940511,-0.44373 -0.347266,-0.44855 -0.347266,-1.18649 0,-0.82476 0.352089,-1.54823 0.356912,-0.72829 0.974273,-1.14791 0.617361,-0.42443 1.355301,-0.42443 0.453374,0 0.795817,0.11093 z m -0.110932,0.50161 q -0.16881,-0.11094 -0.347266,-0.17364 -0.178456,-0.0627 -0.434082,-0.0627 -0.453374,0 -0.848871,0.35691 -0.395497,0.35692 -0.636654,0.98392 -0.241157,0.62701 -0.241157,1.29743 0,0.51607 0.212218,0.82475 0.212218,0.30868 0.573953,0.30868 0.270096,0 0.583599,-0.17363 0.318327,-0.17846 0.612538,-0.49678 z" />
      <path
         d="m 75.528569,219.1367 0.757232,0.12058 -0.03859,0.21704 h -1.577165 l 0.73794,-4.19613 -0.622184,-0.12058 0.03858,-0.21704 h 1.442117 z m 1.036974,-5.67683 q 0,0.21222 -0.15434,0.36656 -0.154341,0.15434 -0.371382,0.15434 -0.212217,0 -0.366558,-0.15434 -0.15434,-0.15434 -0.15434,-0.36656 0,-0.21704 0.15434,-0.37138 0.154341,-0.15434 0.366558,-0.15434 0.217041,0 0.371382,0.15434 0.15434,0.15434 0.15434,0.37138 z"/>
      <path
         d="m 80.197363,218.14313 q 0,0.7283 -0.463021,1.08039 -0.463021,0.34726 -1.403532,0.34726 -0.665592,0 -1.350477,-0.29903 l 0.197748,-1.09003 h 0.217041 l 0.08199,0.66077 q 0.125402,0.13505 0.352089,0.24116 0.231511,0.1061 0.520899,0.1061 1.056266,0 1.056266,-0.86334 0,-0.28456 -0.226687,-0.50643 -0.221864,-0.22186 -0.728294,-0.46784 -0.487136,-0.23633 -0.72347,-0.5209 -0.236333,-0.28939 -0.236333,-0.67524 0,-0.63665 0.429259,-0.98392 0.429259,-0.35208 1.191314,-0.35208 0.545014,0 1.2926,0.16881 l -0.178456,1.00803 h -0.226688 l -0.06752,-0.5209 q -0.303858,-0.27009 -0.800641,-0.27009 -0.395497,0 -0.63183,0.18328 -0.236334,0.17845 -0.236334,0.55948 0,0.26045 0.202572,0.4582 0.202571,0.19774 0.766878,0.48713 0.501606,0.26045 0.733116,0.55949 0.231511,0.29903 0.231511,0.6897 z"/>
      <path
         d="m 81.972276,218.63509 q 0,0.21705 0.106109,0.32798 0.110932,0.10611 0.279742,0.10611 0.352089,0 0.733116,-0.1447 l 0.101286,0.22669 q -0.593245,0.41961 -1.20096,0.41961 -0.381028,0 -0.602892,-0.23151 -0.217041,-0.23151 -0.217041,-0.6463 0,-0.13987 0.02412,-0.32797 0.02894,-0.19293 0.530545,-3.01928 h -0.593246 l 0.03859,-0.21704 0.641477,-0.18811 0.660769,-1.02732 h 0.308681 l -0.178456,1.02732 h 1.036974 l -0.07717,0.40515 h -1.036974 l -0.467844,2.6479 q -0.08682,0.44373 -0.08682,0.64147 z"/>
      <path
         d="m 87.243962,219.1367 0.545014,0.12058 -0.03859,0.21704 h -1.374593 l 0.139871,-0.75241 q -0.81511,0.8537 -1.490349,0.8537 -0.583599,0 -0.940511,-0.42926 -0.352089,-0.42926 -0.352089,-1.18167 0,-0.84405 0.366559,-1.57717 0.371381,-0.73794 0.988742,-1.1479 0.617361,-0.41479 1.340831,-0.41479 0.583599,0 1.099675,0.20257 l 0.217041,-0.16399 h 0.260449 z m -0.139871,-3.69934 q -0.188102,-0.13023 -0.352089,-0.17846 -0.163986,-0.0531 -0.405143,-0.0531 -0.482313,0 -0.887457,0.36655 -0.40032,0.36174 -0.63183,0.9791 -0.231511,0.61736 -0.231511,1.28778 0,0.51607 0.212218,0.82475 0.212218,0.30868 0.578776,0.30868 0.545014,0 1.191314,-0.67041 z"/>
      <path
         d="m 92.018865,215.86662 q 0,-0.21705 -0.115755,-0.35209 -0.115756,-0.13505 -0.366559,-0.13505 -0.356912,0 -0.781347,0.30386 -0.419613,0.30385 -0.694532,0.75241 l -0.530544,3.03857 h -0.800641 l 0.73794,-4.20095 -0.56913,-0.12058 0.03858,-0.21704 h 1.340831 l -0.130224,0.92604 q 0.405143,-0.5209 0.839225,-0.78135 0.434082,-0.26044 0.853695,-0.26044 0.487136,0 0.733116,0.26527 0.24598,0.26045 0.24598,0.75241 0,0.0675 -0.01929,0.20739 -0.01929,0.13987 -0.525721,3.09645 l 0.63183,0.11576 -0.03859,0.21704 h -1.451763 l 0.49196,-2.80706 q 0.110932,-0.61254 0.110932,-0.80064 z"/>
      <path
         d="m 97.049393,218.78943 q -0.390674,0.36174 -0.877811,0.57396 -0.487136,0.20739 -0.926041,0.20739 -0.776525,0 -1.200961,-0.44855 -0.424435,-0.44855 -0.424435,-1.23954 0,-0.83923 0.337619,-1.52894 0.337619,-0.69453 0.959804,-1.11414 0.627007,-0.41961 1.311892,-0.41961 0.342443,0 0.728293,0.0723 0.385851,0.0724 0.636654,0.17846 l -0.217041,1.26366 h -0.265272 l -0.07717,-0.83923 q -0.303857,-0.30385 -0.810286,-0.30385 -0.463021,0 -0.868164,0.34244 -0.40032,0.34244 -0.641477,0.95498 -0.241157,0.61254 -0.241157,1.34565 0,1.23473 0.993566,1.23473 0.689708,0 1.437294,-0.48232 z"/>
      <path
         d="m 101.85806,215.80874 q 0,0.65594 -0.81029,1.11896 -0.81029,0.46303 -2.175232,0.55467 l -0.01929,0.35208 q 0,0.61254 0.255626,0.92605 0.26045,0.30868 0.766879,0.30868 0.434077,0 0.800637,-0.1447 0.36656,-0.14951 0.68488,-0.33762 l 0.13988,0.20257 q -0.44373,0.37621 -0.94052,0.57878 -0.49195,0.20257 -0.93568,0.20257 -0.781348,0 -1.205784,-0.43408 -0.419612,-0.43891 -0.419612,-1.25401 0,-0.80547 0.337619,-1.5 0.342443,-0.69935 0.945334,-1.12861 0.602892,-0.43408 1.263663,-0.43408 0.59324,0 0.95015,0.27491 0.36174,0.2701 0.36174,0.71383 z m -2.946937,1.36977 q 0.95498,-0.0724 1.528937,-0.44855 0.57395,-0.37621 0.57395,-0.92122 0,-0.2701 -0.14952,-0.44373 -0.14469,-0.17363 -0.42443,-0.17363 -0.33762,0 -0.65595,0.27492 -0.318327,0.27491 -0.549837,0.73793 -0.23151,0.46303 -0.32315,0.97428 z"/>
      <path
         d="m 108.34517,219.57078 q -0.54984,0 -0.88263,-0.42443 -0.3328,-0.42444 -0.3328,-1.1672 0,-0.8537 0.30868,-1.58199 0.31351,-0.72829 0.87299,-1.14791 0.56431,-0.42443 1.24919,-0.42443 0.52572,0 0.83923,0.13505 l 0.0145,-0.1447 0.053,-0.45337 0.22186,-1.31189 -0.7717,-0.11576 0.0579,-0.3135 h 2.09806 l -1.14308,6.4437 0.47749,0.12058 -0.0579,0.28939 h -1.60128 l -0.0338,-0.69453 q -0.28456,0.38103 -0.65112,0.58842 -0.36656,0.20257 -0.71865,0.20257 z m 0.0531,-1.80385 q 0,0.5209 0.13504,0.80546 0.13987,0.28457 0.36174,0.28457 0.18328,0 0.4389,-0.19293 0.26045,-0.19292 0.46302,-0.47749 l 0.46785,-2.65272 q -0.0965,-0.0965 -0.29904,-0.16399 -0.19774,-0.0675 -0.34726,-0.0675 -0.32797,0 -0.61254,0.34244 -0.27974,0.34244 -0.44373,0.92604 -0.16398,0.5836 -0.16398,1.19614 z"/>
    </g>

    <g
       transform="translate(0,-201.74998)">
        <path
           d="m 122.1727,278.50351 q -0.82958,0 -1.28778,-0.44856 -0.45337,-0.44855 -0.45337,-1.23954 0,-0.89228 0.35208,-1.59163 0.35692,-0.69936 0.9791,-1.08521 0.62219,-0.38585 1.34566,-0.38585 0.34726,0 0.7524,0.0675 0.40997,0.0627 0.6656,0.14952 l -0.23634,1.38906 h -0.34726 l -0.0675,-0.82475 q -0.26045,-0.28939 -0.70417,-0.28939 -0.38103,0 -0.72347,0.34244 -0.33762,0.33762 -0.53055,0.92122 -0.19292,0.57878 -0.19292,1.25884 0,0.54019 0.21221,0.83922 0.21222,0.29904 0.62219,0.29904 0.36173,0 0.65594,-0.13023 0.29904,-0.13022 0.57396,-0.32315 l 0.21222,0.30386 q -0.3955,0.35209 -0.88264,0.54984 -0.48231,0.19775 -0.94533,0.19775 z"/>
        <path
           d="m 129.2,277.89579 q 0.16399,0 0.53055,-0.1254 l 0.1254,0.33762 q -0.23633,0.16881 -0.60289,0.28456 -0.36174,0.11094 -0.68971,0.11094 -0.53054,0 -0.81993,-0.25081 -0.28457,-0.25562 -0.28457,-0.73794 0,-0.22186 0.0868,-0.69453 l 0.44373,-2.44533 h -0.55466 l 0.053,-0.3135 0.68489,-0.1881 0.67041,-1.02733 h 0.70418 l -0.18328,1.02733 h 0.76206 l -0.0868,0.5016 h -0.76206 l -0.4389,2.45498 q -0.0772,0.3955 -0.0772,0.57877 0,0.25563 0.1254,0.37139 0.13022,0.11575 0.3135,0.11575 z"/>
        <path
           d="m 126.79947,288.72595 h -3.514 l 0.13643,-0.78135 q 1.5999,-1.2361 2.23242,-2.04638 0.63252,-0.81029 0.63252,-1.50895 0,-0.44649 -0.2067,-0.64493 -0.20671,-0.20257 -0.54157,-0.20257 -0.36794,0 -0.65733,0.21498 l -0.31832,0.80201 h -0.35967 l 0.22324,-1.2609 q 0.34726,-0.0744 0.66973,-0.12402 0.32659,-0.0537 0.69866,-0.0537 0.77308,0 1.20303,0.31833 0.42995,0.31833 0.42995,0.87643 0,0.40515 -0.16123,0.78962 -0.16123,0.38447 -0.47543,0.75241 -0.31006,0.36793 -0.84336,0.79375 -0.52916,0.42168 -1.76526,1.22369 h 2.77812 z"/>
      <path
         style="fill:none;stroke:#000000;stroke-width:0.53004974;stroke-linecap:round;stroke-linejoin:miter;stroke-miterlimit:4"
         d="m 118.55305,280.36964 c 4.33027,-0.015 5.06364,0.007 13.50801,-0.006"/>
        <path
           d="m 102.23066,283.79525 q -0.54983,0 -0.88263,-0.42443 -0.33279,-0.42444 -0.33279,-1.1672 0,-0.85369 0.30868,-1.58199 0.3135,-0.72829 0.87298,-1.1479 0.56431,-0.42444 1.24919,-0.42444 0.52573,0 0.83923,0.13505 l 0.0145,-0.1447 0.053,-0.45337 0.22187,-1.31189 -0.7717,-0.11576 0.0579,-0.3135 h 2.09807 l -1.14309,6.44371 0.47749,0.12057 -0.0579,0.28939 h -1.60128 l -0.0338,-0.69453 q -0.28456,0.38103 -0.65112,0.58842 -0.36656,0.20257 -0.71865,0.20257 z m 0.0531,-1.80385 q 0,0.5209 0.13505,0.80547 0.13987,0.28456 0.36173,0.28456 0.18328,0 0.43891,-0.19292 0.26045,-0.19293 0.46302,-0.4775 l 0.46784,-2.65272 q -0.0965,-0.0965 -0.29903,-0.16399 -0.19775,-0.0675 -0.34727,-0.0675 -0.32797,0 -0.61254,0.34244 -0.27974,0.34245 -0.44372,0.92604 -0.16399,0.5836 -0.16399,1.19614 z"/>
        <path
           d="m 113.46857,281.06054 v 0.69453 h -4.59163 v -0.69453 z m 0,-1.97266 v 0.6897 h -4.59163 v -0.6897 z"/>
    </g>

    <g
       transform="rotate(-90,-58.208335,-58.208334)">
      <path
         d="m -177.73205,14.763609 q 0,0.217041 0.1061,0.327974 0.11094,0.106108 0.27975,0.106108 0.35208,0 0.73311,-0.144694 l 0.10129,0.226688 q -0.59325,0.419612 -1.20096,0.419612 -0.38103,0 -0.60289,-0.23151 -0.21704,-0.23151 -0.21704,-0.6463 0,-0.139871 0.0241,-0.327973 0.0289,-0.192925 0.53055,-3.019282 h -0.59325 l 0.0386,-0.217041 0.64147,-0.188102 0.66077,-1.027328 h 0.30868 l -0.17845,1.027328 h 1.03697 l -0.0772,0.405143 h -1.03697 l -0.46785,2.647901 q -0.0868,0.443728 -0.0868,0.641476 z"/>
      <path
         d="m -174.85747,15.265215 0.75724,0.120579 -0.0386,0.217041 h -1.57716 l 0.73793,-4.196127 -0.62218,-0.120578 0.0386,-0.217041 h 1.44211 z m 1.03698,-5.6768282 q 0,0.2122179 -0.15434,0.3665582 -0.15434,0.15434 -0.37138,0.15434 -0.21222,0 -0.36656,-0.15434 -0.15434,-0.1543403 -0.15434,-0.3665582 0,-0.217041 0.15434,-0.3713813 0.15434,-0.1543403 0.36656,-0.1543403 0.21704,0 0.37138,0.1543403 0.15434,0.1543403 0.15434,0.3713813 z"/>
      <path
         d="m -169.31569,12.004777 q 0.32798,-0.467844 0.74277,-0.762055 0.41479,-0.294211 0.79581,-0.294211 0.40515,0 0.63666,0.260449 0.23633,0.255626 0.23633,0.742762 0,0.106109 -0.0241,0.279742 -0.0193,0.16881 -0.51126,3.033751 l 0.63183,0.120579 -0.0434,0.217041 h -1.45177 l 0.49678,-2.807064 q 0.11094,-0.583599 0.11094,-0.80064 0,-0.217041 -0.10129,-0.347266 -0.10128,-0.135048 -0.31833,-0.135048 -0.21221,0 -0.50642,0.202572 -0.29422,0.202571 -0.53537,0.520898 -0.23634,0.313504 -0.28457,0.588423 l -0.47749,2.778125 h -0.80064 l 0.49196,-2.807064 q 0.12058,-0.631831 0.12058,-0.80064 0,-0.217041 -0.10611,-0.347266 -0.10611,-0.135048 -0.3328,-0.135048 -0.21221,0 -0.52089,0.217041 -0.30868,0.212218 -0.54502,0.520899 -0.23633,0.303857 -0.27974,0.573953 l -0.47749,2.778125 h -0.80064 l 0.73794,-4.196127 -0.56913,-0.120578 0.0386,-0.217041 h 1.34084 l -0.13505,0.935688 q 0.33762,-0.47749 0.75723,-0.766878 0.41961,-0.289388 0.79099,-0.289388 0.42444,0 0.65595,0.270095 0.23633,0.265272 0.23633,0.786171 z"/>
      <path
         d="m -162.22568,11.937253 q 0,0.655946 -0.81029,1.118967 -0.81028,0.463021 -2.17523,0.55466 l -0.0193,0.352089 q 0,0.612538 0.25562,0.926042 0.26045,0.30868 0.76688,0.30868 0.43408,0 0.80064,-0.144694 0.36656,-0.149517 0.68489,-0.337619 l 0.13987,0.202572 q -0.44373,0.376204 -0.94051,0.578776 -0.49196,0.202571 -0.93569,0.202571 -0.78135,0 -1.20578,-0.434082 -0.41962,-0.438905 -0.41962,-1.254014 0,-0.805464 0.33762,-1.499995 0.34245,-0.699354 0.94534,-1.128613 0.60289,-0.434082 1.26366,-0.434082 0.59324,0 0.95016,0.274918 0.36173,0.270096 0.36173,0.713824 z m -2.94693,1.36977 q 0.95498,-0.07235 1.52893,-0.448551 0.57395,-0.376205 0.57395,-0.921219 0,-0.270095 -0.14951,-0.443728 -0.1447,-0.173633 -0.42444,-0.173633 -0.33762,0 -0.65595,0.274919 -0.31832,0.274918 -0.54983,0.737939 -0.23151,0.463021 -0.32315,0.974273 z"/>
      <path
         d="m -155.00545,15.091583 q 0.16399,0 0.53055,-0.125402 l 0.1254,0.337619 q -0.23634,0.16881 -0.60289,0.284565 -0.36174,0.110932 -0.68971,0.110932 -0.53055,0 -0.81994,-0.250803 -0.28456,-0.255626 -0.28456,-0.737939 0,-0.221864 0.0868,-0.694531 l 0.44372,-2.445329 h -0.55466 l 0.0531,-0.313504 0.68488,-0.188102 0.67042,-1.027328 h 0.70418 l -0.18328,1.027328 h 0.76205 l -0.0868,0.501606 h -0.76206 l -0.4389,2.454975 q -0.0772,0.395497 -0.0772,0.578776 0,0.255626 0.1254,0.371381 0.13022,0.115756 0.3135,0.115756 z"/>
    </g>
  </g>
</svg>
